<mxfile host="app.diagrams.net" modified="2021-03-22T06:06:22.740Z" agent="5.0 (Macintosh; Intel Mac OS X 10_15_6) AppleWebKit/605.1.15 (KHTML, like Gecko) Version/14.0.3 Safari/605.1.15" etag="9u-9pKiE1A2As87SpbP-" version="14.4.7" type="github">
  <diagram id="Crgh_gBwS4iSy5XbGJoe" name="Page-1">
    <mxGraphModel dx="946" dy="617" grid="1" gridSize="10" guides="1" tooltips="1" connect="1" arrows="1" fold="1" page="1" pageScale="1" pageWidth="827" pageHeight="1169" math="0" shadow="0">
      <root>
        <mxCell id="0" />
        <mxCell id="1" parent="0" />
        <mxCell id="KDPVr5SkBMoxLfSeg4j0-2" style="edgeStyle=orthogonalEdgeStyle;rounded=0;orthogonalLoop=1;jettySize=auto;html=1;" edge="1" parent="1" source="KDPVr5SkBMoxLfSeg4j0-1" target="KDPVr5SkBMoxLfSeg4j0-3">
          <mxGeometry relative="1" as="geometry">
            <mxPoint x="440" y="650" as="targetPoint" />
          </mxGeometry>
        </mxCell>
        <mxCell id="KDPVr5SkBMoxLfSeg4j0-1" value="" style="ellipse;whiteSpace=wrap;html=1;" vertex="1" parent="1">
          <mxGeometry x="130" y="585" width="120" height="80" as="geometry" />
        </mxCell>
        <mxCell id="KDPVr5SkBMoxLfSeg4j0-3" value="" style="ellipse;whiteSpace=wrap;html=1;" vertex="1" parent="1">
          <mxGeometry x="450" y="600" width="120" height="80" as="geometry" />
        </mxCell>
        <mxCell id="KDPVr5SkBMoxLfSeg4j0-4" value="" style="ellipse;whiteSpace=wrap;html=1;" vertex="1" parent="1">
          <mxGeometry x="160" y="720" width="120" height="80" as="geometry" />
        </mxCell>
      </root>
    </mxGraphModel>
  </diagram>
</mxfile>
